<svg width="1347" height="359" viewBox="0 0 1347 359" fill="none" xmlns="http://www.w3.org/2000/svg">
<path d="M445.013 223.185C408.176 238.673 332.001 282.999 320.001 302.999C314.001 314.999 321.35 318.114 336.001 310.998C368.652 295.091 414.281 277.324 462.002 260.999C518.579 242.797 520.056 239.394 520.31 228.117C520.346 226.513 520.159 224.899 519.657 223.375C512.96 203.025 498.058 203.712 445.013 223.185Z" fill="#066FB9"/>
<path d="M536.735 269.45C465.201 280.486 404.294 298.472 349.929 324.224C320.906 338.122 316.001 341.801 316.001 350.385C316.001 361.422 318.454 361.422 350.746 352.02C372.819 345.889 476.237 332.4 538.778 327.903C572.706 325.451 604.181 321.772 609.495 319.319C626.663 312.37 630.342 287.027 616.035 272.72C609.904 266.997 564.939 264.953 536.735 269.45Z" fill="#066FB9"/>
<path d="M179.867 221.84C216.704 237.328 292.88 281.654 304.88 301.654C310.88 313.654 303.532 316.769 288.88 309.653C256.229 293.746 210.599 275.979 162.878 259.653C106.301 241.451 104.823 238.048 104.569 226.772C104.533 225.168 104.72 223.553 105.222 222.029C111.919 201.679 126.821 202.367 179.867 221.84Z" fill="#46AE69"/>
<path d="M88.1433 268.104C159.678 279.141 220.585 297.126 274.952 322.879C303.975 336.777 308.88 340.455 308.88 349.04C308.88 360.076 306.427 360.076 274.134 350.675C252.061 344.543 148.641 331.054 86.0995 326.557C52.1714 324.105 20.696 320.426 15.382 317.973C-1.78641 311.024 -5.46532 285.681 8.84167 271.374C14.9732 265.651 59.9381 263.607 88.1433 268.104Z" fill="#46AE69"/>
<path d="M156.001 95L310.001 3L462.001 95L386.001 141V189L310.001 197L238.001 189V141L156.001 95V129H162.001V177H148.001V129H156.001V95Z" fill="#3083B5"/>
<path d="M156.001 95L310.001 3L462.001 95L386.001 141M156.001 95L238.001 141V189C238.001 189 281.883 193.876 310.001 197M156.001 95L310.001 93M156.001 95V129M386.001 141V189C386.001 189 339.681 193.876 310.001 197M386.001 141V121L310.001 93M310.001 197C310.001 156.385 310.001 93 310.001 93M156.001 129H162.001V177H148.001V129H156.001Z" stroke="#3083B5" stroke-width="4"/>
<path d="M386.001 124.395V189.199L314.001 196.777V97.8682L386.001 124.395Z" fill="#45B0E6" stroke="#45B0E6" stroke-width="4"/>
<path d="M597.814 154.154H609.453C609.229 159.22 608.203 163.533 606.375 167.092C604.548 170.619 601.918 173.313 598.487 175.172C595.089 177.032 590.936 177.962 586.03 177.962C582.311 177.962 578.976 177.289 576.026 175.942C573.108 174.595 570.623 172.655 568.571 170.122C566.519 167.557 564.948 164.431 563.858 160.743C562.799 157.056 562.27 152.871 562.27 148.19V135.781C562.27 131.099 562.815 126.915 563.906 123.228C565.028 119.54 566.631 116.414 568.715 113.849C570.8 111.284 573.333 109.344 576.315 108.029C579.329 106.682 582.728 106.009 586.511 106.009C591.353 106.009 595.425 106.939 598.728 108.799C602.031 110.658 604.58 113.384 606.375 116.975C608.171 120.566 609.213 124.943 609.502 130.105H597.862C597.702 126.61 597.221 123.821 596.419 121.737C595.65 119.62 594.463 118.097 592.86 117.167C591.289 116.238 589.173 115.773 586.511 115.773C584.299 115.773 582.391 116.189 580.788 117.023C579.217 117.857 577.918 119.107 576.892 120.775C575.898 122.41 575.144 124.478 574.631 126.979C574.15 129.448 573.91 132.35 573.91 135.685V148.19C573.91 151.396 574.118 154.234 574.535 156.703C574.952 159.172 575.625 161.272 576.555 163.004C577.485 164.703 578.72 166.002 580.259 166.9C581.798 167.765 583.722 168.198 586.03 168.198C588.788 168.198 590.984 167.765 592.62 166.9C594.287 166.034 595.521 164.575 596.323 162.523C597.125 160.471 597.622 157.681 597.814 154.154ZM642.977 166.419V140.494C642.977 138.699 642.721 137.256 642.208 136.166C641.727 135.075 641.005 134.29 640.043 133.809C639.113 133.296 637.943 133.039 636.532 133.039C635.057 133.039 633.807 133.344 632.781 133.953C631.787 134.562 631.033 135.396 630.52 136.454C630.007 137.48 629.75 138.667 629.75 140.013H618.544C618.544 137.929 618.961 135.925 619.794 134.001C620.66 132.077 621.895 130.362 623.498 128.855C625.101 127.348 627.041 126.162 629.318 125.296C631.594 124.43 634.127 123.997 636.917 123.997C640.252 123.997 643.218 124.558 645.815 125.681C648.412 126.771 650.448 128.55 651.923 131.019C653.43 133.456 654.184 136.663 654.184 140.639V164.928C654.184 167.333 654.328 169.481 654.617 171.373C654.937 173.232 655.37 174.852 655.915 176.23V177H644.516C644.003 175.749 643.618 174.146 643.362 172.19C643.105 170.234 642.977 168.31 642.977 166.419ZM644.468 145.304L644.516 152.567H639.129C637.526 152.567 636.083 152.791 634.801 153.24C633.518 153.657 632.428 154.266 631.53 155.068C630.664 155.837 629.991 156.783 629.51 157.906C629.061 159.028 628.837 160.262 628.837 161.609C628.837 163.244 629.061 164.575 629.51 165.601C629.991 166.627 630.68 167.397 631.578 167.91C632.508 168.391 633.63 168.631 634.945 168.631C636.74 168.631 638.296 168.246 639.61 167.477C640.957 166.675 641.983 165.713 642.688 164.591C643.426 163.469 643.715 162.443 643.554 161.513L646.103 166.178C645.847 167.397 645.366 168.679 644.66 170.026C643.987 171.373 643.105 172.655 642.015 173.874C640.925 175.092 639.61 176.086 638.071 176.856C636.532 177.593 634.752 177.962 632.732 177.962C629.815 177.962 627.217 177.353 624.941 176.134C622.664 174.916 620.868 173.168 619.554 170.892C618.271 168.583 617.63 165.825 617.63 162.619C617.63 160.022 618.063 157.665 618.929 155.549C619.794 153.432 621.077 151.621 622.776 150.114C624.476 148.575 626.608 147.388 629.173 146.555C631.77 145.721 634.801 145.304 638.264 145.304H644.468ZM676.741 136.069V177H665.535V124.959H676.068L676.741 136.069ZM674.721 149.104H671.162C671.13 145.352 671.531 141.937 672.364 138.859C673.198 135.781 674.384 133.136 675.923 130.923C677.463 128.711 679.306 127.011 681.455 125.825C683.635 124.606 686.056 123.997 688.717 123.997C690.801 123.997 692.693 124.35 694.393 125.055C696.124 125.729 697.599 126.835 698.818 128.374C700.036 129.913 700.966 131.917 701.607 134.386C702.281 136.855 702.617 139.869 702.617 143.428V177H691.411V143.332C691.411 140.895 691.138 138.971 690.593 137.56C690.08 136.118 689.31 135.092 688.284 134.482C687.258 133.841 685.96 133.52 684.389 133.52C682.946 133.52 681.615 133.937 680.396 134.771C679.21 135.572 678.184 136.695 677.318 138.138C676.485 139.549 675.843 141.2 675.394 143.092C674.946 144.951 674.721 146.955 674.721 149.104ZM744.895 158.916C744.895 157.473 744.734 156.19 744.414 155.068C744.125 153.913 743.564 152.871 742.73 151.941C741.896 151.012 740.71 150.098 739.171 149.2C737.664 148.302 735.708 147.388 733.303 146.458C730.546 145.4 727.964 144.246 725.56 142.995C723.187 141.713 721.087 140.27 719.259 138.667C717.463 137.031 716.052 135.124 715.026 132.943C714 130.763 713.487 128.23 713.487 125.344C713.487 122.49 713.984 119.893 714.978 117.552C716.004 115.179 717.447 113.143 719.307 111.444C721.199 109.712 723.443 108.382 726.041 107.452C728.638 106.49 731.508 106.009 734.65 106.009C739.171 106.009 743.035 106.971 746.241 108.895C749.48 110.819 751.949 113.4 753.648 116.638C755.38 119.877 756.245 123.468 756.245 127.412H744.606C744.606 125.135 744.253 123.115 743.548 121.352C742.842 119.588 741.752 118.209 740.277 117.215C738.802 116.221 736.894 115.724 734.554 115.724C732.405 115.724 730.626 116.141 729.215 116.975C727.836 117.809 726.81 118.947 726.137 120.39C725.495 121.833 725.175 123.484 725.175 125.344C725.175 126.626 725.447 127.797 725.992 128.855C726.538 129.881 727.323 130.827 728.349 131.693C729.375 132.558 730.626 133.376 732.101 134.146C733.576 134.915 735.275 135.653 737.199 136.358C740.47 137.544 743.323 138.859 745.76 140.302C748.197 141.745 750.201 143.364 751.772 145.16C753.376 146.923 754.562 148.927 755.332 151.172C756.133 153.416 756.534 155.966 756.534 158.819C756.534 161.705 756.037 164.334 755.043 166.707C754.081 169.048 752.67 171.052 750.81 172.719C748.951 174.387 746.706 175.685 744.077 176.615C741.448 177.513 738.498 177.962 735.227 177.962C732.213 177.962 729.311 177.513 726.521 176.615C723.764 175.717 721.295 174.355 719.115 172.527C716.934 170.667 715.203 168.343 713.92 165.553C712.67 162.763 712.044 159.493 712.044 155.741H723.732C723.732 157.986 724.004 159.91 724.549 161.513C725.095 163.084 725.88 164.383 726.906 165.409C727.964 166.403 729.199 167.14 730.61 167.621C732.053 168.07 733.656 168.294 735.419 168.294C737.6 168.294 739.379 167.91 740.758 167.14C742.169 166.339 743.211 165.232 743.884 163.821C744.558 162.411 744.895 160.775 744.895 158.916ZM792.462 106.971V177H780.823V106.971H792.462ZM810.306 106.971V116.783H763.171V106.971H810.306ZM858.548 167.236V177H828.15V167.236H858.548ZM831.229 106.971V177H819.541V106.971H831.229ZM854.459 136.118V145.737H828.15V136.118H854.459ZM858.259 106.971V116.783H828.15V106.971H858.259ZM872.207 106.971H882.837L898.949 159.06L915.013 106.971H924.873L903.326 177H894.524L872.207 106.971ZM868.215 106.971H878.027L879.614 151.557V177H868.215V106.971ZM919.775 106.971H929.635V177H918.236V151.557L919.775 106.971ZM1004.47 167.236V177H974.077V167.236H1004.47ZM977.155 106.971V177H965.467V106.971H977.155ZM1000.39 136.118V145.737H974.077V136.118H1000.39ZM1004.19 106.971V116.783H974.077V106.971H1004.19ZM1038.43 166.13V103.123H1049.64V177L1039.49 177.048L1038.43 166.13ZM1010.49 153.096V149.008C1010.49 144.743 1010.87 141.056 1011.64 137.945C1012.41 134.803 1013.53 132.19 1015.01 130.105C1016.51 128.021 1018.33 126.482 1020.44 125.488C1022.56 124.494 1024.95 123.997 1027.61 123.997C1030.21 123.997 1032.45 124.59 1034.34 125.777C1036.23 126.931 1037.84 128.582 1039.15 130.731C1040.47 132.879 1041.51 135.444 1042.28 138.426C1043.08 141.376 1043.62 144.679 1043.91 148.334V154.01C1043.56 157.537 1043 160.775 1042.23 163.725C1041.46 166.643 1040.42 169.16 1039.1 171.276C1037.79 173.393 1036.17 175.044 1034.25 176.23C1032.35 177.385 1030.13 177.962 1027.56 177.962C1024.9 177.962 1022.51 177.433 1020.39 176.375C1018.31 175.317 1016.51 173.745 1015.01 171.661C1013.53 169.577 1012.41 166.996 1011.64 163.918C1010.87 160.807 1010.49 157.2 1010.49 153.096ZM1021.69 149.008V153.096C1021.69 155.757 1021.85 158.05 1022.17 159.974C1022.49 161.898 1023.01 163.485 1023.71 164.735C1024.42 165.954 1025.35 166.868 1026.5 167.477C1027.66 168.054 1029.05 168.343 1030.69 168.343C1032.74 168.343 1034.41 167.83 1035.69 166.803C1037 165.777 1038.01 164.399 1038.72 162.667C1039.46 160.904 1039.97 158.948 1040.26 156.799V145.593C1040.1 143.893 1039.78 142.322 1039.3 140.879C1038.81 139.404 1038.19 138.122 1037.42 137.031C1036.65 135.941 1035.7 135.092 1034.58 134.482C1033.49 133.841 1032.21 133.52 1030.73 133.52C1029.1 133.52 1027.7 133.841 1026.55 134.482C1025.4 135.092 1024.47 136.037 1023.76 137.32C1023.06 138.571 1022.53 140.174 1022.17 142.13C1021.85 144.054 1021.69 146.346 1021.69 149.008ZM1086.82 164.735V124.959H1098.02V177H1087.49L1086.82 164.735ZM1088.4 153.865L1091.96 153.769C1091.96 157.264 1091.64 160.487 1091 163.437C1090.36 166.387 1089.36 168.952 1088.02 171.132C1086.7 173.281 1084.99 174.964 1082.87 176.182C1080.79 177.369 1078.27 177.962 1075.32 177.962C1073.2 177.962 1071.26 177.593 1069.5 176.856C1067.74 176.118 1066.21 174.98 1064.93 173.441C1063.65 171.902 1062.66 169.898 1061.95 167.429C1061.24 164.96 1060.89 162.01 1060.89 158.579V124.959H1072.1V158.675C1072.1 160.535 1072.26 162.09 1072.58 163.34C1072.9 164.559 1073.35 165.553 1073.93 166.322C1074.5 167.06 1075.14 167.589 1075.85 167.91C1076.59 168.198 1077.37 168.343 1078.21 168.343C1080.74 168.343 1082.74 167.717 1084.22 166.467C1085.73 165.184 1086.8 163.453 1087.44 161.272C1088.08 159.092 1088.4 156.623 1088.4 153.865ZM1127.7 168.583C1129.14 168.583 1130.42 168.278 1131.55 167.669C1132.7 167.06 1133.61 166.114 1134.29 164.831C1134.96 163.517 1135.33 161.817 1135.39 159.733H1145.93C1145.86 163.421 1145.01 166.643 1143.38 169.401C1141.74 172.126 1139.56 174.242 1136.84 175.749C1134.14 177.224 1131.15 177.962 1127.84 177.962C1124.41 177.962 1121.41 177.417 1118.85 176.327C1116.32 175.204 1114.21 173.585 1112.55 171.469C1110.88 169.353 1109.63 166.787 1108.8 163.773C1107.99 160.727 1107.59 157.248 1107.59 153.336V148.623C1107.59 144.743 1107.99 141.28 1108.8 138.234C1109.63 135.188 1110.88 132.607 1112.55 130.49C1114.21 128.374 1116.32 126.771 1118.85 125.681C1121.38 124.558 1124.36 123.997 1127.79 123.997C1131.45 123.997 1134.61 124.767 1137.27 126.306C1139.96 127.813 1142.06 130.025 1143.57 132.943C1145.08 135.861 1145.86 139.436 1145.93 143.669H1135.39C1135.33 141.424 1134.99 139.549 1134.38 138.041C1133.77 136.502 1132.91 135.348 1131.79 134.578C1130.7 133.809 1129.32 133.424 1127.65 133.424C1125.82 133.424 1124.32 133.777 1123.13 134.482C1121.97 135.156 1121.08 136.15 1120.44 137.464C1119.83 138.779 1119.39 140.382 1119.14 142.274C1118.91 144.134 1118.8 146.25 1118.8 148.623V153.336C1118.8 155.773 1118.91 157.938 1119.14 159.829C1119.36 161.689 1119.78 163.276 1120.39 164.591C1121.03 165.906 1121.94 166.9 1123.13 167.573C1124.32 168.246 1125.84 168.583 1127.7 168.583ZM1178.78 166.419V140.494C1178.78 138.699 1178.52 137.256 1178.01 136.166C1177.53 135.075 1176.81 134.29 1175.84 133.809C1174.91 133.296 1173.74 133.039 1172.33 133.039C1170.86 133.039 1169.61 133.344 1168.58 133.953C1167.59 134.562 1166.83 135.396 1166.32 136.454C1165.81 137.48 1165.55 138.667 1165.55 140.013H1154.34C1154.34 137.929 1154.76 135.925 1155.59 134.001C1156.46 132.077 1157.69 130.362 1159.3 128.855C1160.9 127.348 1162.84 126.162 1165.12 125.296C1167.39 124.43 1169.93 123.997 1172.72 123.997C1176.05 123.997 1179.02 124.558 1181.61 125.681C1184.21 126.771 1186.25 128.55 1187.72 131.019C1189.23 133.456 1189.98 136.663 1189.98 140.639V164.928C1189.98 167.333 1190.13 169.481 1190.42 171.373C1190.74 173.232 1191.17 174.852 1191.72 176.23V177H1180.32C1179.8 175.749 1179.42 174.146 1179.16 172.19C1178.91 170.234 1178.78 168.31 1178.78 166.419ZM1180.27 145.304L1180.32 152.567H1174.93C1173.33 152.567 1171.88 152.791 1170.6 153.24C1169.32 153.657 1168.23 154.266 1167.33 155.068C1166.46 155.837 1165.79 156.783 1165.31 157.906C1164.86 159.028 1164.64 160.262 1164.64 161.609C1164.64 163.244 1164.86 164.575 1165.31 165.601C1165.79 166.627 1166.48 167.397 1167.38 167.91C1168.31 168.391 1169.43 168.631 1170.74 168.631C1172.54 168.631 1174.1 168.246 1175.41 167.477C1176.76 166.675 1177.78 165.713 1178.49 164.591C1179.23 163.469 1179.51 162.443 1179.35 161.513L1181.9 166.178C1181.65 167.397 1181.17 168.679 1180.46 170.026C1179.79 171.373 1178.91 172.655 1177.82 173.874C1176.73 175.092 1175.41 176.086 1173.87 176.856C1172.33 177.593 1170.55 177.962 1168.53 177.962C1165.61 177.962 1163.02 177.353 1160.74 176.134C1158.46 174.916 1156.67 173.168 1155.35 170.892C1154.07 168.583 1153.43 165.825 1153.43 162.619C1153.43 160.022 1153.86 157.665 1154.73 155.549C1155.59 153.432 1156.88 151.621 1158.58 150.114C1160.28 148.575 1162.41 147.388 1164.97 146.555C1167.57 145.721 1170.6 145.304 1174.06 145.304H1180.27ZM1222.5 124.959V133.617H1196.96V124.959H1222.5ZM1203.93 112.213H1215.09V162.475C1215.09 164.078 1215.27 165.296 1215.62 166.13C1215.97 166.964 1216.47 167.525 1217.11 167.813C1217.75 168.102 1218.51 168.246 1219.37 168.246C1220.01 168.246 1220.64 168.198 1221.25 168.102C1221.89 167.974 1222.35 167.862 1222.64 167.765V176.808C1221.81 177.128 1220.85 177.401 1219.76 177.625C1218.67 177.85 1217.35 177.962 1215.81 177.962C1213.54 177.962 1211.5 177.497 1209.7 176.567C1207.91 175.605 1206.5 174.05 1205.47 171.902C1204.44 169.721 1203.93 166.836 1203.93 163.244V112.213ZM1243.08 124.959V177H1231.88V124.959H1243.08ZM1231.3 111.3C1231.3 109.504 1231.84 108.013 1232.93 106.827C1234.02 105.64 1235.55 105.047 1237.5 105.047C1239.46 105.047 1240.98 105.64 1242.07 106.827C1243.16 108.013 1243.71 109.504 1243.71 111.3C1243.71 113.063 1243.16 114.538 1242.07 115.724C1240.98 116.911 1239.46 117.504 1237.5 117.504C1235.55 117.504 1234.02 116.911 1232.93 115.724C1231.84 114.538 1231.3 113.063 1231.3 111.3ZM1253.42 153.096V148.911C1253.42 144.871 1253.92 141.296 1254.91 138.186C1255.91 135.075 1257.32 132.478 1259.15 130.394C1261.01 128.278 1263.19 126.691 1265.69 125.632C1268.19 124.542 1270.95 123.997 1273.96 123.997C1277.04 123.997 1279.83 124.542 1282.33 125.632C1284.86 126.691 1287.04 128.278 1288.87 130.394C1290.73 132.478 1292.16 135.075 1293.15 138.186C1294.15 141.296 1294.64 144.871 1294.64 148.911V153.096C1294.64 157.136 1294.15 160.711 1293.15 163.821C1292.16 166.932 1290.73 169.545 1288.87 171.661C1287.04 173.745 1284.88 175.317 1282.38 176.375C1279.88 177.433 1277.1 177.962 1274.06 177.962C1271.04 177.962 1268.27 177.433 1265.74 176.375C1263.24 175.317 1261.05 173.745 1259.2 171.661C1257.34 169.545 1255.91 166.932 1254.91 163.821C1253.92 160.711 1253.42 157.136 1253.42 153.096ZM1264.63 148.911V153.096C1264.63 155.693 1264.85 157.97 1265.3 159.926C1265.75 161.849 1266.39 163.453 1267.23 164.735C1268.06 166.018 1269.06 166.98 1270.21 167.621C1271.36 168.262 1272.65 168.583 1274.06 168.583C1275.63 168.583 1276.99 168.262 1278.15 167.621C1279.33 166.98 1280.31 166.018 1281.08 164.735C1281.88 163.453 1282.47 161.849 1282.86 159.926C1283.24 157.97 1283.44 155.693 1283.44 153.096V148.911C1283.44 146.346 1283.21 144.102 1282.76 142.178C1282.31 140.222 1281.67 138.603 1280.84 137.32C1280.01 136.005 1279 135.027 1277.81 134.386C1276.65 133.745 1275.37 133.424 1273.96 133.424C1272.58 133.424 1271.32 133.745 1270.16 134.386C1269.04 135.027 1268.06 136.005 1267.23 137.32C1266.39 138.603 1265.75 140.222 1265.3 142.178C1264.85 144.102 1264.63 146.346 1264.63 148.911ZM1315.37 136.069V177H1304.17V124.959H1314.7L1315.37 136.069ZM1313.35 149.104H1309.79C1309.76 145.352 1310.16 141.937 1311 138.859C1311.83 135.781 1313.02 133.136 1314.55 130.923C1316.09 128.711 1317.94 127.011 1320.09 125.825C1322.27 124.606 1324.69 123.997 1327.35 123.997C1329.43 123.997 1331.32 124.35 1333.02 125.055C1334.76 125.729 1336.23 126.835 1337.45 128.374C1338.67 129.913 1339.6 131.917 1340.24 134.386C1340.91 136.855 1341.25 139.869 1341.25 143.428V177H1330.04V143.332C1330.04 140.895 1329.77 138.971 1329.22 137.56C1328.71 136.118 1327.94 135.092 1326.92 134.482C1325.89 133.841 1324.59 133.52 1323.02 133.52C1321.58 133.52 1320.25 133.937 1319.03 134.771C1317.84 135.572 1316.82 136.695 1315.95 138.138C1315.12 139.549 1314.47 141.2 1314.03 143.092C1313.58 144.951 1313.35 146.955 1313.35 149.104Z" fill="#0272C0"/>
<path d="M793.367 246.387H782.73V242.094H793.367C795.427 242.094 797.095 241.766 798.371 241.109C799.647 240.453 800.577 239.542 801.16 238.375C801.762 237.208 802.062 235.878 802.062 234.383C802.062 233.016 801.762 231.73 801.16 230.527C800.577 229.324 799.647 228.358 798.371 227.629C797.095 226.882 795.427 226.508 793.367 226.508H783.961V262H778.684V222.188H793.367C796.375 222.188 798.918 222.707 800.996 223.746C803.074 224.785 804.651 226.225 805.727 228.066C806.802 229.889 807.34 231.977 807.34 234.328C807.34 236.88 806.802 239.059 805.727 240.863C804.651 242.668 803.074 244.044 800.996 244.992C798.918 245.922 796.375 246.387 793.367 246.387ZM818.305 237.062V262H813.246V232.414H818.168L818.305 237.062ZM827.547 232.25L827.52 236.953C827.1 236.862 826.699 236.807 826.316 236.789C825.952 236.753 825.533 236.734 825.059 236.734C823.892 236.734 822.862 236.917 821.969 237.281C821.076 237.646 820.319 238.156 819.699 238.812C819.079 239.469 818.587 240.253 818.223 241.164C817.876 242.057 817.648 243.042 817.539 244.117L816.117 244.938C816.117 243.151 816.29 241.474 816.637 239.906C817.001 238.339 817.557 236.953 818.305 235.75C819.052 234.529 820 233.581 821.148 232.906C822.315 232.214 823.701 231.867 825.305 231.867C825.669 231.867 826.089 231.913 826.562 232.004C827.036 232.077 827.365 232.159 827.547 232.25ZM837.719 232.414V262H832.633V232.414H837.719ZM832.25 224.566C832.25 223.746 832.496 223.053 832.988 222.488C833.499 221.923 834.246 221.641 835.23 221.641C836.197 221.641 836.935 221.923 837.445 222.488C837.974 223.053 838.238 223.746 838.238 224.566C838.238 225.35 837.974 226.025 837.445 226.59C836.935 227.137 836.197 227.41 835.23 227.41C834.246 227.41 833.499 227.137 832.988 226.59C832.496 226.025 832.25 225.35 832.25 224.566ZM854.836 257.434L862.93 232.414H868.098L857.461 262H854.07L854.836 257.434ZM848.082 232.414L856.422 257.57L856.996 262H853.605L842.887 232.414H848.082ZM889.973 256.941V241.711C889.973 240.544 889.736 239.533 889.262 238.676C888.806 237.801 888.113 237.126 887.184 236.652C886.254 236.178 885.105 235.941 883.738 235.941C882.462 235.941 881.341 236.16 880.375 236.598C879.427 237.035 878.68 237.609 878.133 238.32C877.604 239.031 877.34 239.797 877.34 240.617H872.281C872.281 239.56 872.555 238.512 873.102 237.473C873.648 236.434 874.432 235.495 875.453 234.656C876.492 233.799 877.732 233.125 879.172 232.633C880.63 232.122 882.253 231.867 884.039 231.867C886.19 231.867 888.086 232.232 889.727 232.961C891.385 233.69 892.68 234.793 893.609 236.27C894.557 237.728 895.031 239.56 895.031 241.766V255.547C895.031 256.531 895.113 257.579 895.277 258.691C895.46 259.803 895.724 260.76 896.07 261.562V262H890.793C890.538 261.417 890.337 260.642 890.191 259.676C890.046 258.691 889.973 257.78 889.973 256.941ZM890.848 244.062L890.902 247.617H885.789C884.349 247.617 883.064 247.736 881.934 247.973C880.803 248.191 879.855 248.529 879.09 248.984C878.324 249.44 877.741 250.014 877.34 250.707C876.939 251.382 876.738 252.174 876.738 253.086C876.738 254.016 876.948 254.863 877.367 255.629C877.786 256.395 878.415 257.005 879.254 257.461C880.111 257.898 881.159 258.117 882.398 258.117C883.948 258.117 885.315 257.789 886.5 257.133C887.685 256.477 888.624 255.674 889.316 254.727C890.027 253.779 890.41 252.858 890.465 251.965L892.625 254.398C892.497 255.164 892.151 256.012 891.586 256.941C891.021 257.871 890.264 258.764 889.316 259.621C888.387 260.46 887.275 261.161 885.98 261.727C884.704 262.273 883.264 262.547 881.66 262.547C879.655 262.547 877.896 262.155 876.383 261.371C874.888 260.587 873.721 259.539 872.883 258.227C872.062 256.896 871.652 255.41 871.652 253.77C871.652 252.184 871.962 250.789 872.582 249.586C873.202 248.365 874.095 247.353 875.262 246.551C876.428 245.73 877.832 245.111 879.473 244.691C881.113 244.272 882.945 244.062 884.969 244.062H890.848ZM915.375 232.414V236.297H899.379V232.414H915.375ZM904.793 225.223H909.852V254.672C909.852 255.674 910.007 256.431 910.316 256.941C910.626 257.452 911.027 257.789 911.52 257.953C912.012 258.117 912.54 258.199 913.105 258.199C913.525 258.199 913.962 258.163 914.418 258.09C914.892 257.999 915.247 257.926 915.484 257.871L915.512 262C915.111 262.128 914.582 262.246 913.926 262.355C913.288 262.483 912.513 262.547 911.602 262.547C910.362 262.547 909.223 262.301 908.184 261.809C907.145 261.316 906.315 260.496 905.695 259.348C905.094 258.181 904.793 256.613 904.793 254.645V225.223ZM933.586 262.547C931.526 262.547 929.658 262.201 927.98 261.508C926.322 260.797 924.891 259.803 923.688 258.527C922.503 257.251 921.591 255.738 920.953 253.988C920.315 252.238 919.996 250.324 919.996 248.246V247.098C919.996 244.691 920.352 242.549 921.062 240.672C921.773 238.776 922.74 237.172 923.961 235.859C925.182 234.547 926.568 233.553 928.117 232.879C929.667 232.204 931.271 231.867 932.93 231.867C935.044 231.867 936.867 232.232 938.398 232.961C939.948 233.69 941.215 234.711 942.199 236.023C943.184 237.318 943.913 238.849 944.387 240.617C944.861 242.367 945.098 244.281 945.098 246.359V248.629H923.004V244.5H940.039V244.117C939.966 242.805 939.693 241.529 939.219 240.289C938.763 239.049 938.034 238.029 937.031 237.227C936.029 236.424 934.661 236.023 932.93 236.023C931.781 236.023 930.724 236.27 929.758 236.762C928.792 237.236 927.962 237.947 927.27 238.895C926.577 239.842 926.039 241 925.656 242.367C925.273 243.734 925.082 245.311 925.082 247.098V248.246C925.082 249.65 925.273 250.971 925.656 252.211C926.057 253.432 926.632 254.508 927.379 255.438C928.145 256.367 929.065 257.096 930.141 257.625C931.234 258.154 932.474 258.418 933.859 258.418C935.646 258.418 937.159 258.053 938.398 257.324C939.638 256.595 940.723 255.62 941.652 254.398L944.715 256.832C944.077 257.798 943.266 258.719 942.281 259.594C941.297 260.469 940.085 261.18 938.645 261.727C937.223 262.273 935.536 262.547 933.586 262.547ZM986.879 251.938C986.879 251.008 986.733 250.188 986.441 249.477C986.168 248.747 985.676 248.091 984.965 247.508C984.272 246.924 983.306 246.368 982.066 245.84C980.845 245.311 979.296 244.773 977.418 244.227C975.449 243.643 973.672 242.996 972.086 242.285C970.5 241.556 969.142 240.727 968.012 239.797C966.882 238.867 966.016 237.801 965.414 236.598C964.812 235.395 964.512 234.018 964.512 232.469C964.512 230.919 964.831 229.488 965.469 228.176C966.107 226.863 967.018 225.724 968.203 224.758C969.406 223.773 970.837 223.008 972.496 222.461C974.155 221.914 976.005 221.641 978.047 221.641C981.036 221.641 983.57 222.215 985.648 223.363C987.745 224.493 989.34 225.979 990.434 227.82C991.527 229.643 992.074 231.594 992.074 233.672H986.824C986.824 232.177 986.505 230.855 985.867 229.707C985.229 228.54 984.263 227.629 982.969 226.973C981.674 226.298 980.034 225.961 978.047 225.961C976.169 225.961 974.62 226.243 973.398 226.809C972.177 227.374 971.266 228.139 970.664 229.105C970.081 230.072 969.789 231.174 969.789 232.414C969.789 233.253 969.962 234.018 970.309 234.711C970.673 235.385 971.229 236.014 971.977 236.598C972.742 237.181 973.708 237.719 974.875 238.211C976.06 238.703 977.473 239.177 979.113 239.633C981.374 240.271 983.324 240.982 984.965 241.766C986.605 242.549 987.954 243.434 989.012 244.418C990.087 245.384 990.88 246.487 991.391 247.727C991.919 248.948 992.184 250.333 992.184 251.883C992.184 253.505 991.855 254.973 991.199 256.285C990.543 257.598 989.604 258.719 988.383 259.648C987.161 260.578 985.694 261.298 983.98 261.809C982.285 262.301 980.389 262.547 978.293 262.547C976.452 262.547 974.638 262.292 972.852 261.781C971.083 261.271 969.47 260.505 968.012 259.484C966.572 258.464 965.414 257.206 964.539 255.711C963.682 254.198 963.254 252.448 963.254 250.461H968.504C968.504 251.828 968.768 253.004 969.297 253.988C969.826 254.954 970.546 255.757 971.457 256.395C972.387 257.033 973.435 257.507 974.602 257.816C975.786 258.108 977.017 258.254 978.293 258.254C980.134 258.254 981.693 257.999 982.969 257.488C984.245 256.978 985.211 256.249 985.867 255.301C986.542 254.353 986.879 253.232 986.879 251.938ZM1009.98 258.391C1011.19 258.391 1012.3 258.145 1013.32 257.652C1014.34 257.16 1015.18 256.486 1015.84 255.629C1016.49 254.754 1016.87 253.76 1016.96 252.648H1021.77C1021.68 254.398 1021.09 256.03 1019.99 257.543C1018.92 259.038 1017.5 260.25 1015.75 261.18C1014 262.091 1012.08 262.547 1009.98 262.547C1007.76 262.547 1005.82 262.155 1004.16 261.371C1002.52 260.587 1001.15 259.512 1000.06 258.145C998.983 256.777 998.172 255.21 997.625 253.441C997.096 251.655 996.832 249.768 996.832 247.781V246.633C996.832 244.646 997.096 242.768 997.625 241C998.172 239.214 998.983 237.637 1000.06 236.27C1001.15 234.902 1002.52 233.827 1004.16 233.043C1005.82 232.259 1007.76 231.867 1009.98 231.867C1012.3 231.867 1014.32 232.341 1016.05 233.289C1017.79 234.219 1019.14 235.495 1020.13 237.117C1021.13 238.721 1021.68 240.544 1021.77 242.586H1016.96C1016.87 241.365 1016.52 240.262 1015.92 239.277C1015.33 238.293 1014.53 237.509 1013.51 236.926C1012.51 236.324 1011.33 236.023 1009.98 236.023C1008.43 236.023 1007.13 236.333 1006.07 236.953C1005.04 237.555 1004.21 238.375 1003.59 239.414C1002.98 240.435 1002.55 241.574 1002.27 242.832C1002.02 244.072 1001.89 245.339 1001.89 246.633V247.781C1001.89 249.076 1002.02 250.352 1002.27 251.609C1002.53 252.867 1002.96 254.007 1003.56 255.027C1004.18 256.048 1005.01 256.868 1006.05 257.488C1007.1 258.09 1008.42 258.391 1009.98 258.391ZM1032.52 220V262H1027.46V220H1032.52ZM1031.31 246.086L1029.21 246.004C1029.23 243.98 1029.53 242.112 1030.11 240.398C1030.69 238.667 1031.51 237.163 1032.57 235.887C1033.63 234.611 1034.89 233.626 1036.34 232.934C1037.82 232.223 1039.45 231.867 1041.24 231.867C1042.7 231.867 1044.01 232.068 1045.18 232.469C1046.34 232.852 1047.34 233.471 1048.16 234.328C1048.99 235.185 1049.63 236.297 1050.07 237.664C1050.51 239.013 1050.73 240.663 1050.73 242.613V262H1045.64V242.559C1045.64 241.009 1045.41 239.77 1044.96 238.84C1044.5 237.892 1043.84 237.208 1042.96 236.789C1042.09 236.352 1041.01 236.133 1039.73 236.133C1038.48 236.133 1037.33 236.397 1036.29 236.926C1035.27 237.454 1034.38 238.184 1033.64 239.113C1032.91 240.043 1032.33 241.109 1031.91 242.312C1031.51 243.497 1031.31 244.755 1031.31 246.086ZM1056.96 247.535V246.906C1056.96 244.773 1057.27 242.796 1057.89 240.973C1058.51 239.132 1059.4 237.536 1060.57 236.188C1061.74 234.82 1063.15 233.763 1064.81 233.016C1066.47 232.25 1068.33 231.867 1070.39 231.867C1072.46 231.867 1074.33 232.25 1075.99 233.016C1077.67 233.763 1079.09 234.82 1080.26 236.188C1081.44 237.536 1082.35 239.132 1082.96 240.973C1083.58 242.796 1083.89 244.773 1083.89 246.906V247.535C1083.89 249.668 1083.58 251.646 1082.96 253.469C1082.35 255.292 1081.44 256.887 1080.26 258.254C1079.09 259.603 1077.68 260.66 1076.02 261.426C1074.38 262.173 1072.52 262.547 1070.44 262.547C1068.36 262.547 1066.49 262.173 1064.84 261.426C1063.18 260.66 1061.76 259.603 1060.57 258.254C1059.4 256.887 1058.51 255.292 1057.89 253.469C1057.27 251.646 1056.96 249.668 1056.96 247.535ZM1062.02 246.906V247.535C1062.02 249.012 1062.19 250.406 1062.54 251.719C1062.89 253.013 1063.4 254.161 1064.1 255.164C1064.81 256.167 1065.69 256.96 1066.75 257.543C1067.81 258.108 1069.04 258.391 1070.44 258.391C1071.83 258.391 1073.04 258.108 1074.08 257.543C1075.14 256.96 1076.01 256.167 1076.7 255.164C1077.4 254.161 1077.92 253.013 1078.26 251.719C1078.63 250.406 1078.81 249.012 1078.81 247.535V246.906C1078.81 245.448 1078.63 244.072 1078.26 242.777C1077.92 241.465 1077.39 240.307 1076.68 239.305C1075.98 238.284 1075.11 237.482 1074.05 236.898C1073.01 236.315 1071.79 236.023 1070.39 236.023C1069 236.023 1067.78 236.315 1066.72 236.898C1065.68 237.482 1064.81 238.284 1064.1 239.305C1063.4 240.307 1062.89 241.465 1062.54 242.777C1062.19 244.072 1062.02 245.448 1062.02 246.906ZM1088.9 247.535V246.906C1088.9 244.773 1089.21 242.796 1089.83 240.973C1090.45 239.132 1091.34 237.536 1092.51 236.188C1093.67 234.82 1095.09 233.763 1096.75 233.016C1098.4 232.25 1100.26 231.867 1102.32 231.867C1104.4 231.867 1106.27 232.25 1107.93 233.016C1109.61 233.763 1111.03 234.82 1112.2 236.188C1113.38 237.536 1114.28 239.132 1114.9 240.973C1115.52 242.796 1115.83 244.773 1115.83 246.906V247.535C1115.83 249.668 1115.52 251.646 1114.9 253.469C1114.28 255.292 1113.38 256.887 1112.2 258.254C1111.03 259.603 1109.62 260.66 1107.96 261.426C1106.32 262.173 1104.46 262.547 1102.38 262.547C1100.3 262.547 1098.43 262.173 1096.77 261.426C1095.11 260.66 1093.69 259.603 1092.51 258.254C1091.34 256.887 1090.45 255.292 1089.83 253.469C1089.21 251.646 1088.9 249.668 1088.9 247.535ZM1093.96 246.906V247.535C1093.96 249.012 1094.13 250.406 1094.48 251.719C1094.82 253.013 1095.34 254.161 1096.04 255.164C1096.75 256.167 1097.63 256.96 1098.69 257.543C1099.74 258.108 1100.98 258.391 1102.38 258.391C1103.76 258.391 1104.98 258.108 1106.02 257.543C1107.07 256.96 1107.95 256.167 1108.64 255.164C1109.33 254.161 1109.85 253.013 1110.2 251.719C1110.56 250.406 1110.75 249.012 1110.75 247.535V246.906C1110.75 245.448 1110.56 244.072 1110.2 242.777C1109.85 241.465 1109.32 240.307 1108.61 239.305C1107.92 238.284 1107.05 237.482 1105.99 236.898C1104.95 236.315 1103.73 236.023 1102.32 236.023C1100.94 236.023 1099.72 236.315 1098.66 236.898C1097.62 237.482 1096.75 238.284 1096.04 239.305C1095.34 240.307 1094.82 241.465 1094.48 242.777C1094.13 244.072 1093.96 245.448 1093.96 246.906ZM1127.67 220V262H1122.59V220H1127.67Z" fill="#22733E"/>
</svg>
