<svg width="188" height="24" viewBox="0 0 188 24" fill="none" xmlns="http://www.w3.org/2000/svg">
<g clip-path="url(#clip0_36_136)">
<path d="M8.938 23.9821C2.929 23.9821 0 20.5211 0 13.4091V11.3501C0 5.76608 1.529 2.23808 4.564 0.862076C5.94322 0.265468 7.43575 -0.0238924 8.938 0.014076C11.1512 -0.083536 13.322 0.642557 15.031 2.05208C15.7864 2.74043 16.3828 3.58511 16.7786 4.52735C17.1744 5.46959 17.3602 6.48675 17.323 7.50808H13.63C13.4388 6.43172 12.9623 5.4264 12.25 4.59708C11.8024 4.19332 11.2793 3.88223 10.7108 3.68176C10.1424 3.48129 9.53983 3.39541 8.938 3.42908C8.20625 3.40405 7.47807 3.54166 6.80592 3.832C6.13377 4.12233 5.5344 4.55816 5.051 5.10808C4.2 6.21408 4.1 7.14608 4.011 8.97208C3.94125 9.72028 3.91254 10.4717 3.925 11.2231V13.3461C3.925 16.0851 4.325 17.9321 5.114 18.9721C5.58417 19.521 6.17723 19.9513 6.84499 20.228C7.51275 20.5046 8.23636 20.6197 8.957 20.5641C10.677 20.5641 11.908 20.0761 12.588 19.0781C13.3097 17.8888 13.7255 16.5393 13.798 15.1501H17.429C17.5172 17.5069 16.7307 19.8131 15.221 21.6251C14.3936 22.431 13.408 23.0566 12.3266 23.4623C11.2452 23.868 10.0913 24.045 8.938 23.9821Z" fill="#FF2633"/>
<path d="M31.0182 23.9817C27.7692 23.9817 25.3922 23.1107 23.9692 21.3707C22.5462 19.6307 21.7832 16.6577 21.7832 12.6237V10.8397C21.7832 7.16669 22.5262 4.4067 23.9912 2.6447C25.4562 0.882695 27.8122 0.0126953 31.0182 0.0126953C34.2242 0.0126953 36.5822 0.904695 38.0672 2.6667C39.5522 4.4287 40.3392 7.2307 40.3392 10.8617V12.7297C40.3392 16.6997 39.5962 19.6077 38.1312 21.3707C36.6662 23.1337 34.2882 23.9817 31.0182 23.9817ZM31.0612 3.4307C28.7682 3.4307 27.2402 4.2797 26.5392 5.9567C25.9122 7.68266 25.6308 9.51512 25.7112 11.3497V12.6237C25.7112 15.6807 26.1392 17.7237 27.0282 18.8447C27.449 19.3664 27.9874 19.781 28.5992 20.0547C29.3623 20.4122 30.1978 20.5882 31.0402 20.5687C31.8741 20.5993 32.7034 20.4321 33.4602 20.0807C34.0788 19.8084 34.6243 19.3938 35.0522 18.8707C35.4666 18.3138 35.763 17.6782 35.9232 17.0027C36.2796 15.5729 36.4437 14.1019 36.4112 12.6287V11.3507C36.4727 9.51546 36.1846 7.68527 35.5622 5.9577C34.8402 4.2807 33.3362 3.4317 31.0622 3.4317L31.0612 3.4307Z" fill="#FF2633"/>
<path d="M94.4119 15.0438C94.2661 15.0384 94.1258 14.9861 94.0119 14.8948L92.229 13.3868L92.186 13.3438L91.7399 12.9828L92.4199 12.1338L97.3199 6.35877C97.5022 6.14484 97.6192 5.88298 97.6568 5.60442C97.6944 5.32587 97.651 5.04238 97.5319 4.78777C97.4161 4.53131 97.2279 4.3143 96.9903 4.16345C96.7528 4.01261 96.4763 3.93451 96.1949 3.93877H96.0669L86.8319 4.74477H86.7689C86.6136 4.74523 86.4639 4.68692 86.3499 4.58157C86.2358 4.47621 86.1658 4.3316 86.1539 4.17677L85.9419 1.84177C85.9331 1.75909 85.9412 1.67549 85.9656 1.59599C85.9899 1.5165 86.0301 1.44276 86.0837 1.37923C86.1374 1.31569 86.2033 1.26367 86.2776 1.22629C86.3519 1.18892 86.433 1.16698 86.5159 1.16177L99.147 0.0767734H99.4889C100.171 0.0713225 100.84 0.262769 101.416 0.628155C101.993 0.99354 102.451 1.51735 102.737 2.13677C103.037 2.75482 103.151 3.44676 103.066 4.12848C102.98 4.81019 102.698 5.45231 102.254 5.97677L94.9079 14.8088C94.8483 14.8814 94.7734 14.94 94.6885 14.9803C94.6037 15.0205 94.5109 15.0416 94.4169 15.0418L94.4119 15.0438Z" fill="#FF9933"/>
<path d="M85.7302 23.983C85.6494 23.983 85.5693 23.9671 85.4947 23.9361C85.42 23.9051 85.3521 23.8598 85.295 23.8025C85.2379 23.7453 85.1926 23.6774 85.1618 23.6027C85.1309 23.5279 85.1151 23.4479 85.1152 23.367V20.395H103.349C103.433 20.395 103.516 20.4115 103.593 20.4435C103.67 20.4755 103.741 20.5224 103.8 20.5816C103.859 20.6407 103.906 20.711 103.938 20.7883C103.97 20.8655 103.986 20.9484 103.986 21.032V23.367C103.981 23.5323 103.911 23.689 103.792 23.8039C103.674 23.9189 103.515 23.9831 103.349 23.983H85.7302Z" fill="#FF2633"/>
<path d="M155.387 23.9817C152.139 23.9817 149.761 23.1107 148.317 21.3707C146.873 19.6307 146.151 16.6577 146.151 12.6237V10.8397C146.151 7.16669 146.894 4.4067 148.359 2.6447C149.824 0.882695 152.181 0.0126953 155.366 0.0126953C158.551 0.0126953 160.95 0.904695 162.436 2.6667C163.922 4.4287 164.708 7.2307 164.708 10.8617V12.7297C164.708 16.6997 163.965 19.6077 162.5 21.3707C161.035 23.1337 158.657 23.9817 155.387 23.9817ZM155.43 3.4307C153.138 3.4307 151.609 4.2797 150.908 5.9567C150.281 7.68266 150 9.51512 150.08 11.3497V12.6237C150.08 15.6807 150.508 17.7237 151.397 18.8447C151.818 19.3663 152.357 19.781 152.968 20.0547C153.731 20.4122 154.567 20.5881 155.409 20.5687C156.243 20.5993 157.073 20.4321 157.829 20.0807C158.448 19.8084 158.993 19.3938 159.421 18.8707C159.829 18.3123 160.117 17.6766 160.27 17.0027C160.647 15.5763 160.82 14.1036 160.784 12.6287V11.3507C160.851 9.5133 160.555 7.68083 159.913 5.9577C159.213 4.2807 157.705 3.4317 155.433 3.4317L155.43 3.4307Z" fill="#FF9933"/>
<path d="M53.5697 23.9819C50.1087 23.9819 47.7317 23.5359 46.4787 22.6649C45.2257 21.7939 44.6787 20.2019 44.6787 17.8879V0.0148917H53.9137C55.0545 -0.0479996 56.1964 0.118836 57.2715 0.505505C58.3467 0.892174 59.3333 1.4908 60.1727 2.26589C61.3684 3.45108 62.1234 5.00906 62.3127 6.68189C62.497 8.41617 62.5751 10.1601 62.5467 11.9039L62.5897 14.5789C62.5387 15.9916 62.3321 17.3944 61.9737 18.7619C61.6405 19.8995 61.0207 20.9325 60.1737 21.7619C58.6817 23.2389 56.4527 23.9819 53.5697 23.9819ZM48.6907 17.6549C48.6517 18.1052 48.7407 18.5573 48.9473 18.9592C49.1539 19.3612 49.4699 19.6966 49.8587 19.9269C50.9761 20.405 52.1936 20.6021 53.4047 20.5009C54.1562 20.5388 54.9067 20.4078 55.601 20.1176C56.2953 19.8274 56.9157 19.3854 57.4167 18.8239C57.9391 18.1154 58.2617 17.2796 58.3507 16.4039C58.5033 14.9157 58.5671 13.4197 58.5417 11.9239C58.5682 10.4564 58.5044 8.98859 58.3507 7.52889C58.2571 6.67653 57.9263 5.86753 57.3957 5.19389C56.9161 4.62715 56.3108 4.18023 55.628 3.88873C54.9452 3.59724 54.2037 3.46923 53.4627 3.51489H48.6857L48.6907 17.6549Z" fill="#FF2633"/>
<path d="M73.4997 23.9817C70.8247 23.9817 68.9357 23.5357 67.8997 22.6447C66.8637 21.7537 66.3447 20.1627 66.3447 17.8507V0.0126953H81.8647V3.5127H70.3567V10.1587H78.3817L78.1057 13.6407H70.3567V17.5047C70.3108 17.9311 70.3614 18.3623 70.5048 18.7665C70.6481 19.1707 70.8805 19.5375 71.1847 19.8397C71.9687 20.3548 72.9049 20.5869 73.8387 20.4977H81.8637V23.9797L73.4997 23.9817Z" fill="#FF2633"/>
<path d="M116.684 23.9817C114.645 24.0874 112.609 23.7166 110.739 22.8987C107.895 21.4557 106.472 17.4427 106.472 11.0127C106.472 7.1917 107.278 4.3887 108.913 2.6237C110.548 0.858695 113.053 0.0126953 116.408 0.0126953C122.268 0.0126953 125.108 3.1977 125.108 9.7127C125.108 10.3707 125.087 11.3897 125.045 12.7487H111.058V13.1487C110.931 14.888 111.307 16.627 112.141 18.1587C112.863 19.2417 114.413 19.8587 116.621 19.8587C117.248 19.9039 117.877 19.7962 118.454 19.5449C119.031 19.2936 119.538 18.9061 119.933 18.4157C120.472 17.7572 120.824 16.9654 120.952 16.1237H125.072C124.986 18.7777 124.223 20.7527 122.8 21.9837C121.062 23.3527 118.895 24.0607 116.684 23.9817ZM116.302 3.7277C115.62 3.69568 114.938 3.80335 114.3 4.0441C113.661 4.28484 113.078 4.65358 112.587 5.1277C111.575 6.31824 111.072 7.8587 111.187 9.4167V9.8447H120.996V9.4177C121.107 7.89981 120.703 6.38868 119.85 5.1287C119.402 4.64372 118.851 4.26597 118.237 4.02358C117.623 3.78119 116.962 3.68039 116.304 3.7287L116.302 3.7277Z" fill="#FF9933"/>
<path d="M179.145 23.9821C175.684 23.9821 173.245 23.3671 171.905 22.1561C171.248 21.5255 170.741 20.7557 170.422 19.9034C170.102 19.0511 169.978 18.1379 170.058 17.2311V17.1251H174.219C174.207 17.6188 174.308 18.1088 174.514 18.5576C174.72 19.0065 175.025 19.4024 175.408 19.7151C176.552 20.3318 177.849 20.6047 179.145 20.5011C182.288 20.5011 182.945 18.9521 182.945 17.6351C182.995 17.048 182.893 16.4578 182.648 15.9221C182.402 15.3864 182.022 14.9233 181.545 14.5781C181.076 14.3136 180.567 14.1272 180.038 14.0261L175.749 13.3041C172.225 12.7521 170.527 10.6041 170.527 6.74409C170.472 5.79714 170.653 4.85146 171.053 3.9913C171.453 3.13113 172.059 2.38319 172.818 1.81409C174.578 0.572494 176.695 -0.0596218 178.848 0.0140877C184.412 0.0140877 187.106 2.32509 187.106 7.08409V7.21409H183.115C183.117 6.71878 183.012 6.22883 182.807 5.77805C182.602 5.32727 182.301 4.9264 181.926 4.60309C181.04 4.03778 180.003 3.75655 178.954 3.79709C177.93 3.72527 176.912 4.00232 176.066 4.58309C175.759 4.79398 175.504 5.07165 175.321 5.3952C175.137 5.71876 175.029 6.07977 175.005 6.45109C175.005 8.72309 176.257 9.42309 177.297 9.61809L182.414 10.5311C185.814 11.1681 187.488 13.4181 187.488 17.4091V18.0241C187.454 18.9098 187.208 19.7746 186.773 20.5463C186.337 21.3181 185.723 21.9746 184.982 22.4611C183.227 23.5277 181.197 24.0565 179.145 23.9821Z" fill="#FF9933"/>
<path d="M143.286 0.246702V3.5787C141.333 3.5787 137.086 5.7187 136.662 5.9137L136.471 6.0197L136.322 6.1057L136.088 6.2337C135.852 6.38122 135.655 6.58387 135.515 6.82425C135.374 7.06462 135.294 7.33553 135.281 7.6137V23.9817H130.654V0.0127021H133.86L135.389 2.5607L136.489 2.0937H136.51L136.638 2.0307H136.66L138.549 1.2447H138.592L140.392 0.501702L140.498 0.458702H140.519L140.752 0.358702C141.235 0.139038 141.759 0.0212567 142.289 0.0127021H142.417C142.723 0.0118402 143.024 0.0926172 143.288 0.246702H143.286Z" fill="#FF9933"/>
</g>
<defs>
<clipPath id="clip0_36_136">
<rect width="187.488" height="24" fill="white"/>
</clipPath>
</defs>
</svg>
