<svg width="170" height="107" viewBox="0 0 170 107" fill="none" xmlns="http://www.w3.org/2000/svg">
<g clip-path="url(#clip0_37_212)">
<path d="M0 18.4642C0 15.4661 2.76139 13.0767 6.22157 13.0767C9.68176 13.0767 12.4544 15.4661 12.4544 18.4642V34.9536H39.1666V18.4642C39.1666 15.4661 42.0182 13.0767 45.3882 13.0767C48.7582 13.0767 51.621 15.4661 51.621 18.4642V61.5982C51.621 64.5963 48.7582 66.9857 45.3882 66.9857C42.0182 66.9857 39.1666 64.5963 39.1666 61.5982V44.6917H12.4544V61.5982C12.4544 64.5963 9.5127 66.9857 6.22157 66.9857C2.93045 66.9857 0 64.5963 0 61.5982V18.4642Z" fill="white"/>
<path d="M75.8431 61.5986C75.8431 64.5967 72.9014 66.9862 69.6102 66.9862C66.0712 66.9862 63.3887 64.5967 63.3887 61.5986V19.1634C63.3887 16.1541 66.0712 13.7646 69.6102 13.7646H89.898C95.6011 13.7646 100.797 14.6889 104.764 17.315C106.948 18.814 108.72 20.8387 109.915 23.2024C111.111 25.566 111.692 28.1927 111.606 30.8402C111.612 33.353 111.018 35.8309 109.873 38.0678C108.728 40.3046 107.065 42.2357 105.024 43.7003C103.725 44.6345 102.335 45.4351 100.876 46.0898L110.558 58.4878C111.232 59.3116 111.602 60.3424 111.606 61.407C111.571 62.1879 111.382 62.9541 111.049 63.6613C110.716 64.3684 110.246 65.0025 109.667 65.5267C109.087 66.0509 108.409 66.4548 107.672 66.715C106.935 66.9752 106.153 67.0865 105.373 67.0425C104.344 67.0657 103.326 66.8314 102.411 66.361C101.495 65.8905 100.712 65.1988 100.132 64.3488L87.9143 47.9608H75.8431V61.5986ZM75.8431 23.1646V38.6509H88.8047C91.1028 38.7584 93.3916 38.2937 95.4658 37.2984C96.5966 36.6734 97.5284 35.7423 98.1544 34.612C98.7803 33.4817 99.0751 32.1979 99.0049 30.9078C99.0819 29.6572 98.8174 28.4092 98.2396 27.2974C97.6619 26.1856 96.7927 25.2518 95.7251 24.596C93.635 23.5325 91.3053 23.0277 88.9625 23.1308L75.8431 23.1646Z" fill="white"/>
<path d="M143.897 31.1779L156.858 15.4662C157.52 14.6749 158.355 14.0474 159.3 13.6328C160.244 13.2183 161.272 13.028 162.302 13.0767C165.841 13.0767 169.47 15.4662 169.47 18.9264C169.426 20.1604 168.938 21.3371 168.095 22.24L151.933 39.8791L168.625 57.9126C169.059 58.3323 169.405 58.8348 169.641 59.3905C169.877 59.9462 169.999 60.5436 170 61.1474C170 64.3822 166.619 66.997 162.832 66.997C161.801 67.0493 160.772 66.8606 159.827 66.4458C158.882 66.031 158.047 65.4016 157.388 64.6076L143.897 48.569L130.146 64.5851C129.468 65.3808 128.617 66.0102 127.657 66.4245C126.698 66.8388 125.656 67.027 124.612 66.9745C121.152 66.9745 117.522 64.6639 117.522 61.2038C117.521 60.5869 117.643 59.9761 117.881 59.4071C118.119 58.8381 118.469 58.3223 118.909 57.8901L135.815 40.0932L119.472 22.24C118.611 21.3409 118.093 20.1683 118.007 18.9264C118.007 15.6916 121.467 13.0767 125.277 13.0767C126.313 13.0042 127.352 13.1837 128.304 13.5998C129.256 14.0159 130.093 14.6563 130.743 15.4662L143.897 31.1779Z" fill="white"/>
<path d="M143.762 16.0862C148.175 16.0862 151.753 12.5085 151.753 8.09512C151.753 3.68175 148.175 0.104004 143.762 0.104004C139.348 0.104004 135.771 3.68175 135.771 8.09512C135.771 12.5085 139.348 16.0862 143.762 16.0862Z" fill="#793CFF"/>
<path d="M19.0259 88.2995C19.0212 88.4112 18.9938 88.5208 18.9453 88.6216C18.8969 88.7223 18.8284 88.8122 18.7441 88.8856C18.5758 89.0513 18.3491 89.1444 18.1129 89.1448C17.5663 89.045 17.038 88.8626 16.5462 88.6038C15.1184 88.0122 13.583 87.7244 12.0379 87.7585C10.6499 87.7037 9.26546 87.9345 7.97035 88.4366C6.67525 88.9388 5.49707 89.7015 4.50885 90.6777C3.01906 92.3442 2.22974 94.5212 2.30533 96.7552C2.38092 98.9893 3.31559 101.108 4.9146 102.67C6.89911 104.347 9.44198 105.216 12.0379 105.105C13.6255 105.169 15.2095 104.908 16.6928 104.338C17.1882 104.079 17.7203 103.896 18.2707 103.797C18.382 103.795 18.4927 103.815 18.5955 103.858C18.6984 103.901 18.7912 103.964 18.8681 104.045C18.9487 104.115 19.0135 104.202 19.0582 104.299C19.1029 104.396 19.1264 104.502 19.1273 104.609C19.1273 105.082 18.6426 105.522 17.6621 105.905C15.8594 106.57 13.9478 106.891 12.0266 106.852C8.82118 107.026 5.6708 105.965 3.22396 103.887C2.1757 102.939 1.34491 101.775 0.788518 100.475C0.232129 99.1759 -0.0366992 97.7714 0.000458686 96.3582C-0.0292751 95.1087 0.192915 93.8659 0.653782 92.7041C1.11465 91.5422 1.80475 90.4851 2.68295 89.5957C3.88247 88.3534 5.33369 87.3818 6.93933 86.7462C8.54498 86.1105 10.268 85.8255 11.9928 85.9101C13.9733 85.886 15.9376 86.2696 17.7635 87.0372C18.6088 87.4204 19.0259 87.8374 19.0259 88.2995Z" fill="white"/>
<path d="M21.4149 96.3581C21.3912 94.9739 21.6682 93.601 22.2267 92.3342C22.7851 91.0674 23.6118 89.9369 24.6497 89.0207C27.0265 86.8725 30.1496 85.7398 33.3509 85.8648C36.5381 85.7432 39.6459 86.8763 42.007 89.0207C43.0259 89.9581 43.8392 91.0967 44.3955 92.3645C44.9519 93.6323 45.2391 95.0018 45.2391 96.3863C45.2391 97.7708 44.9519 99.1402 44.3955 100.408C43.8392 101.676 43.0259 102.814 42.007 103.752C39.6324 105.873 36.533 106.999 33.3509 106.896C30.1557 107.026 27.0342 105.915 24.6384 103.797C23.5942 102.865 22.7651 101.717 22.2085 100.432C21.6519 99.1476 21.3811 97.7576 21.4149 96.3581ZM23.6691 96.3581C23.6439 97.495 23.8507 98.6251 24.2771 99.6793C24.7034 100.734 25.3403 101.69 26.1487 102.489C27.1124 103.404 28.2486 104.117 29.491 104.587C30.7334 105.058 32.0571 105.275 33.3847 105.228C34.7052 105.273 36.0214 105.054 37.2562 104.584C38.491 104.113 39.6195 103.401 40.5756 102.489C42.1916 100.867 43.099 98.6705 43.099 96.3806C43.099 94.0907 42.1916 91.8941 40.5756 90.2718C39.6232 89.3517 38.4963 88.6314 37.2614 88.1533C36.0265 87.6752 34.7084 87.4489 33.3847 87.4878C32.0465 87.4406 30.7124 87.6627 29.4617 88.1409C28.2109 88.6192 27.069 89.3438 26.1037 90.2718C25.3068 91.0685 24.68 92.0188 24.2616 93.065C23.8431 94.1112 23.6415 95.2316 23.6691 96.3581Z" fill="white"/>
<path d="M69.4745 105.95V95.0957C69.4745 92.3005 68.7531 90.2717 67.2992 89.1446C65.7519 88.0569 63.8772 87.5355 61.9906 87.6681C60.6484 87.5982 59.3122 87.8909 58.1223 88.5156C56.9323 89.1404 55.9326 90.074 55.228 91.2185C54.298 92.755 53.8069 94.5169 53.8078 96.313V105.95C53.8083 106.08 53.7791 106.208 53.7225 106.325C53.6659 106.443 53.5833 106.545 53.481 106.626C53.2581 106.806 52.9787 106.902 52.692 106.896C52.4079 106.908 52.1302 106.811 51.9143 106.626C51.8087 106.548 51.723 106.446 51.6642 106.328C51.6055 106.211 51.5753 106.081 51.5762 105.95V86.789C51.5753 86.6576 51.6055 86.5279 51.6642 86.4103C51.723 86.2928 51.8087 86.1908 51.9143 86.1127C52.1302 85.9277 52.4079 85.8311 52.692 85.8422C52.9787 85.8367 53.2581 85.9325 53.481 86.1127C53.5833 86.1932 53.6659 86.2959 53.7225 86.4131C53.7791 86.5303 53.8083 86.6588 53.8078 86.789V90.3393C55.4609 87.3337 58.3275 85.8309 62.4076 85.8309C64.7152 85.7012 67.0034 86.3177 68.9335 87.5892C70.7594 89.0206 71.6723 91.3537 71.6723 94.5659V105.95C71.6732 106.081 71.6431 106.211 71.5843 106.328C71.5255 106.446 71.4398 106.548 71.3342 106.626C71.1184 106.811 70.8406 106.908 70.5565 106.896C70.2801 106.902 70.0114 106.806 69.8013 106.626C69.6997 106.545 69.6175 106.442 69.561 106.325C69.5044 106.208 69.4748 106.08 69.4745 105.95Z" fill="white"/>
<path d="M96.9304 105.95V95.0956C96.9304 92.3004 96.164 90.2716 94.6762 89.1445C93.1413 88.0668 91.2842 87.5459 89.4127 87.668C88.0594 87.5856 86.7091 87.8724 85.5061 88.4977C84.3031 89.123 83.2926 90.0634 82.5825 91.2184C81.6525 92.7549 81.1613 94.5168 81.1623 96.3128V105.95C81.1628 106.08 81.1336 106.208 81.077 106.325C81.0203 106.443 80.9378 106.545 80.8355 106.626C80.6126 106.806 80.3331 106.902 80.0465 106.896C79.7624 106.907 79.4847 106.811 79.2688 106.626C79.1632 106.548 79.0775 106.446 79.0187 106.328C78.96 106.211 78.9298 106.081 78.9307 105.95V86.7889C78.9298 86.6575 78.96 86.5278 79.0187 86.4102C79.0775 86.2927 79.1632 86.1907 79.2688 86.1126C79.4847 85.9276 79.7624 85.831 80.0465 85.8421C80.3331 85.8366 80.6126 85.9324 80.8355 86.1126C80.9378 86.1931 81.0203 86.2958 81.077 86.413C81.1336 86.5302 81.1628 86.6587 81.1623 86.7889V90.3392C82.8154 87.3336 85.682 85.8308 89.7621 85.8308C92.0699 85.6995 94.3585 86.3161 96.288 87.5891C98.1139 89.0205 99.0268 91.3536 99.0268 94.5658V105.95C99.0277 106.081 98.9975 106.211 98.9388 106.328C98.88 106.446 98.7943 106.548 98.6887 106.626C98.4728 106.811 98.1951 106.907 97.911 106.896C97.6346 106.902 97.3659 106.806 97.1558 106.626C97.0725 106.535 97.0094 106.428 96.9705 106.312C96.9316 106.195 96.918 106.072 96.9304 105.95Z" fill="white"/>
<path d="M124.872 103.031C124.987 103.029 125.101 103.053 125.206 103.1C125.311 103.146 125.404 103.215 125.48 103.301C125.637 103.456 125.726 103.667 125.728 103.887C125.728 104.27 125.278 104.71 124.365 105.183C122.009 106.352 119.408 106.939 116.779 106.897C115.118 106.981 113.457 106.717 111.905 106.121C110.352 105.525 108.941 104.611 107.762 103.436C106.838 102.455 106.117 101.3 105.639 100.039C105.161 98.7783 104.937 97.4355 104.979 96.0878C104.943 94.7499 105.185 93.4192 105.689 92.1796C106.193 90.94 106.949 89.8184 107.909 88.8856C109.006 87.8462 110.303 87.042 111.722 86.5225C113.141 86.0031 114.651 85.7793 116.159 85.865C117.59 85.7984 119.019 86.0195 120.363 86.5151C121.706 87.0107 122.937 87.7708 123.981 88.7504C124.884 89.6245 125.594 90.6777 126.065 91.8423C126.537 93.0068 126.76 94.2571 126.72 95.513C126.72 96.3583 126.281 96.7753 125.402 96.7753H107.368C107.364 98.7837 108.102 100.723 109.442 102.219C110.386 103.232 111.543 104.023 112.829 104.535C114.115 105.048 115.499 105.269 116.881 105.183C119.053 105.222 121.204 104.747 123.159 103.797L123.756 103.482L124.218 103.211C124.32 103.145 124.43 103.092 124.545 103.053C124.652 103.026 124.762 103.018 124.872 103.031ZM107.312 95.2312H124.522C124.556 94.2412 124.379 93.2553 124.004 92.3385C123.629 91.4216 123.064 90.5944 122.347 89.9113C121.534 89.1181 120.565 88.5014 119.502 88.0999C118.44 87.6985 117.305 87.5208 116.171 87.5782C114.923 87.5037 113.674 87.6976 112.507 88.1467C111.34 88.5958 110.284 89.2898 109.408 90.1818C108.106 91.5458 107.358 93.346 107.312 95.2312Z" fill="white"/>
<path d="M150.524 88.2994C150.519 88.4111 150.492 88.5207 150.444 88.6215C150.395 88.7223 150.327 88.8121 150.242 88.8855C150.074 89.0513 149.847 89.1444 149.611 89.1448C149.065 89.0449 148.536 88.8625 148.045 88.6037C146.617 88.0115 145.081 87.7236 143.536 87.7584C142.146 87.702 140.76 87.9321 139.463 88.4343C138.165 88.9364 136.985 89.7 135.996 90.6776C134.503 92.3412 133.71 94.5167 133.781 96.7507C133.853 98.9846 134.783 101.105 136.379 102.67C138.367 104.349 140.914 105.218 143.514 105.104C145.101 105.166 146.685 104.906 148.169 104.338C148.66 104.078 149.188 103.895 149.735 103.797C149.848 103.794 149.961 103.815 150.065 103.858C150.17 103.9 150.265 103.964 150.344 104.045C150.423 104.116 150.486 104.203 150.529 104.3C150.572 104.397 150.593 104.502 150.592 104.609C150.592 105.082 150.107 105.521 149.127 105.905C147.324 106.571 145.412 106.892 143.491 106.851C140.286 107.024 137.136 105.963 134.688 103.887C133.64 102.931 132.813 101.758 132.262 100.45C131.711 99.1428 131.451 97.7312 131.499 96.3131C131.469 95.0635 131.691 93.8208 132.152 92.6589C132.613 91.4971 133.303 90.4399 134.181 89.5505C135.381 88.3088 136.833 87.3377 138.438 86.7021C140.044 86.0665 141.766 85.781 143.491 85.8649C145.472 85.8408 147.436 86.2244 149.262 86.992C150.107 87.4203 150.524 87.8373 150.524 88.2994Z" fill="white"/>
<path d="M154.526 86.2704H157.005V82.7087C157.002 82.5782 157.03 82.4487 157.087 82.3311C157.144 82.2135 157.228 82.1112 157.332 82.0325C157.551 81.8521 157.827 81.7561 158.11 81.762C158.396 81.7564 158.676 81.8522 158.899 82.0325C159.001 82.113 159.084 82.2157 159.14 82.3329C159.197 82.45 159.226 82.5786 159.226 82.7087V86.2704H167.42C167.644 86.2628 167.863 86.3437 168.028 86.4958C168.109 86.5611 168.174 86.6435 168.219 86.737C168.264 86.8306 168.287 86.933 168.287 87.0368C168.285 87.1434 168.26 87.2482 168.216 87.3451C168.171 87.442 168.107 87.5288 168.028 87.6003C167.865 87.7565 167.646 87.8416 167.42 87.837H159.226V100.01C159.117 101.403 159.517 102.789 160.353 103.909C160.88 104.386 161.502 104.745 162.178 104.965C162.854 105.184 163.568 105.259 164.275 105.183C165.365 105.184 166.439 104.925 167.408 104.428C167.953 104.11 168.531 103.852 169.133 103.661C169.357 103.654 169.576 103.735 169.741 103.887C169.821 103.953 169.884 104.036 169.927 104.129C169.97 104.223 169.991 104.325 169.989 104.428C169.989 104.935 169.313 105.487 167.972 106.085C166.691 106.624 165.315 106.9 163.926 106.896C159.305 106.896 156.994 104.642 156.994 100.134V87.837H154.514C153.94 87.837 153.646 87.5778 153.646 87.0368C153.647 86.933 153.67 86.8306 153.715 86.737C153.76 86.6435 153.825 86.5611 153.906 86.4958C153.989 86.4191 154.087 86.3597 154.193 86.321C154.299 86.2823 154.413 86.2651 154.526 86.2704Z" fill="white"/>
</g>
<defs>
<clipPath id="clip0_37_212">
<rect width="170" height="107" fill="white"/>
</clipPath>
</defs>
</svg>
