<svg width="242" height="70" viewBox="0 0 242 70" fill="none" xmlns="http://www.w3.org/2000/svg">
<g clip-path="url(#clip0_36_148)">
<mask id="mask0_36_148" style="mask-type:luminance" maskUnits="userSpaceOnUse" x="0" y="0" width="380" height="70">
<path d="M379.565 0H0V69.998H379.565V0Z" fill="white"/>
</mask>
<g mask="url(#mask0_36_148)">
<mask id="mask1_36_148" style="mask-type:luminance" maskUnits="userSpaceOnUse" x="0" y="0" width="380" height="70">
<path d="M379.565 0H0V69.998H379.565V0Z" fill="white"/>
</mask>
<g mask="url(#mask1_36_148)">
<path d="M12.523 45.9453C12.278 46.3359 11.9261 46.6482 11.5091 46.8449C11.092 47.0416 10.6273 47.1146 10.17 47.0553C9.64863 47.0694 9.13001 46.9751 8.647 46.7783C8.23539 46.6044 7.90319 46.2836 7.715 45.8783L0.2 30.1193C0.0782646 29.935 0.00911534 29.721 0 29.5003C0.00569347 29.3104 0.0681938 29.1265 0.179428 28.9725C0.290662 28.8185 0.44552 28.7014 0.624 28.6363C1.13682 28.4072 1.69585 28.3004 2.257 28.3243C3.216 28.3243 3.804 28.5763 4.022 29.0743L10.137 42.8103L17 29.5943C17.1819 29.1886 17.4705 28.8399 17.835 28.5853C18.2341 28.3846 18.6792 28.2935 19.125 28.3213C19.394 28.3146 19.6627 28.3414 19.925 28.4013C20.1119 28.4466 20.289 28.5251 20.448 28.6333C20.5992 28.736 20.7275 28.8687 20.825 29.0233C20.9464 29.2064 21.0559 29.3971 21.153 29.5943L27.753 42.8073L33.999 29.0713C34.217 28.5713 34.817 28.3213 35.799 28.3213C36.3601 28.2982 36.9189 28.405 37.432 28.6333C37.6098 28.699 37.764 28.8163 37.8746 28.9703C37.9853 29.1243 38.0474 29.3078 38.053 29.4973C38.0444 29.719 37.9753 29.9341 37.853 30.1193L30.138 45.8793C29.9514 46.2857 29.6187 46.607 29.206 46.7793C28.734 46.9743 28.2265 47.0686 27.716 47.0563C27.218 47.0654 26.7231 46.9771 26.259 46.7963C25.8542 46.6387 25.5229 46.3355 25.33 45.9463L19.062 33.1933L12.523 45.9453Z" fill="white"/>
<path d="M44.4723 39.5702V41.2382C44.5045 41.6058 44.6375 41.9574 44.8566 42.2544C45.0757 42.5513 45.3725 42.782 45.7143 42.9212C46.9688 43.4717 48.3374 43.7118 49.7043 43.6212H53.4653C53.9653 43.6212 54.2873 43.7572 54.4303 44.0322C54.5922 44.419 54.6644 44.8375 54.6413 45.2562C54.6641 45.6814 54.592 46.1063 54.4303 46.5002C54.2873 46.7842 53.9673 46.9282 53.4653 46.9282H49.5723C43.4037 46.9282 40.3193 45.0318 40.3193 41.2392V34.1392C40.3193 30.3452 43.4037 28.4492 49.5723 28.4512H57.1263C60.3963 28.4512 62.757 28.9178 64.2083 29.8512C64.9177 30.3085 65.4926 30.9462 65.8742 31.6991C66.2557 32.4519 66.43 33.2927 66.3793 34.1352V37.9002C66.4323 38.3657 66.3041 38.8336 66.0213 39.2072C65.5473 39.5126 64.9807 39.6408 64.4213 39.5692L44.4723 39.5702ZM44.4723 36.3302H62.2293V34.1412C62.2228 33.759 62.103 33.3874 61.8851 33.0734C61.6672 32.7594 61.361 32.5171 61.0053 32.3772C59.7293 31.8826 58.3612 31.6704 56.9953 31.7552H49.7003C48.3346 31.6649 46.967 31.9007 45.7103 32.4432C45.3647 32.5815 45.0649 32.8142 44.8452 33.1148C44.6256 33.4155 44.495 33.7718 44.4683 34.1432L44.4723 36.3302Z" fill="white"/>
<path d="M74.3279 28.4519H87.1139C93.2825 28.4519 96.3669 30.3479 96.3669 34.1399V41.2399C96.3669 45.0339 93.2825 46.9306 87.1139 46.9299H79.4309C73.2622 46.9299 70.1779 45.0332 70.1779 41.2399V24.6239C70.1439 24.3906 70.1729 24.1525 70.2621 23.9342C70.3513 23.716 70.4972 23.5256 70.6849 23.3829C71.1694 23.1554 71.7037 23.0546 72.2379 23.0899C72.7777 23.0565 73.3174 23.1572 73.8089 23.3829C74.0003 23.5228 74.1499 23.7123 74.2414 23.9311C74.3328 24.1498 74.3628 24.3894 74.3279 24.6239V28.4519ZM74.3279 31.7519V41.2349C74.3604 41.603 74.494 41.9549 74.7138 42.2519C74.9337 42.5489 75.2313 42.7793 75.5739 42.9179C76.8268 43.4687 78.1942 43.7089 79.5599 43.6179H86.9819C88.3498 43.7084 89.7193 43.4683 90.9749 42.9179C91.3167 42.7788 91.6135 42.548 91.8326 42.2511C92.0517 41.9542 92.1847 41.6025 92.2169 41.2349V34.1349C92.1902 33.7635 92.0596 33.4072 91.84 33.1066C91.6203 32.8059 91.3205 32.5732 90.9749 32.4349C89.7172 31.8925 88.3486 31.6567 86.9819 31.7469L74.3279 31.7519Z" fill="white"/>
<path d="M109.39 46.9272C103.218 46.9272 100.132 45.0308 100.133 41.2382V34.1382C100.133 30.3455 103.218 28.4498 109.39 28.4512H125.738C126.238 28.4512 126.565 28.5852 126.717 28.8562C126.895 29.2515 126.974 29.6844 126.946 30.1172C126.972 30.5385 126.894 30.9598 126.717 31.3432C126.607 31.4943 126.457 31.6123 126.284 31.6844C126.112 31.7565 125.923 31.7799 125.738 31.7522H109.518C108.153 31.6617 106.787 31.8979 105.532 32.4412C105.185 32.5787 104.885 32.8112 104.665 33.1119C104.444 33.4126 104.313 33.7694 104.287 34.1412V41.2412C104.319 41.6092 104.452 41.9611 104.672 42.258C104.892 42.5549 105.189 42.7851 105.532 42.9232C106.785 43.4746 108.152 43.7147 109.518 43.6232H125.836C126.336 43.6232 126.657 43.7605 126.797 44.0352C126.964 44.4206 127.037 44.8399 127.012 45.2592C127.037 45.6836 126.965 46.1083 126.8 46.5002C126.66 46.7832 126.34 46.9282 125.839 46.9282L109.39 46.9272Z" fill="white"/>
<path d="M135.191 45.5191C135.225 45.7547 135.193 45.995 135.1 46.214C135.007 46.433 134.856 46.6223 134.663 46.7611C134.174 46.9888 133.636 47.0899 133.099 47.0551C132.564 47.0908 132.03 46.9897 131.546 46.7611C131.357 46.6186 131.211 46.4282 131.121 46.2097C131.032 45.9912 131.003 45.7527 131.038 45.5191V24.6191C131.003 24.3859 131.032 24.1477 131.122 23.9296C131.211 23.7114 131.357 23.5213 131.546 23.3791C132.03 23.1506 132.564 23.0494 133.099 23.0851C133.636 23.0503 134.174 23.1515 134.663 23.3791C134.856 23.5173 135.008 23.7061 135.101 23.9249C135.194 24.1437 135.225 24.3839 135.191 24.6191V45.5191Z" fill="white"/>
<path d="M163.8 28.32C164.335 28.2857 164.869 28.3868 165.353 28.614C165.541 28.7569 165.687 28.9475 165.776 29.1659C165.865 29.3843 165.895 29.6226 165.86 29.856V41.237C165.86 45.031 162.775 46.9274 156.604 46.926H148.79C142.622 46.926 139.538 45.0297 139.537 41.237V29.856C139.503 29.6211 139.533 29.3811 139.625 29.1621C139.717 28.9432 139.867 28.7536 140.059 28.614C140.551 28.3883 141.091 28.2873 141.63 28.32C142.166 28.2861 142.701 28.3872 143.186 28.614C143.372 28.7582 143.517 28.9492 143.604 29.1674C143.692 29.3856 143.721 29.6233 143.686 29.856V41.237C143.712 41.6091 143.843 41.9663 144.063 42.2671C144.283 42.568 144.584 42.8003 144.931 42.937C146.188 43.4791 147.555 43.7145 148.92 43.624H156.471C157.837 43.7133 159.204 43.4779 160.461 42.937C160.807 42.7991 161.107 42.5665 161.327 42.2658C161.547 41.9651 161.677 41.6085 161.703 41.237V29.856C161.67 29.621 161.7 29.3812 161.793 29.1624C161.885 28.9436 162.035 28.754 162.226 28.614C162.717 28.388 163.257 28.287 163.796 28.32" fill="white"/>
<path d="M174.074 39.5702V41.2382C174.106 41.6063 174.24 41.9582 174.46 42.2552C174.68 42.5522 174.977 42.7827 175.32 42.9212C176.573 43.4718 177.94 43.7119 179.306 43.6212H183.068C183.568 43.6212 183.889 43.7572 184.033 44.0322C184.195 44.419 184.268 44.8374 184.245 45.2562C184.267 45.6808 184.195 46.105 184.033 46.4982C183.889 46.7822 183.566 46.9262 183.068 46.9262H179.177C173.008 46.9262 169.923 45.0299 169.924 41.2372V34.1372C169.924 30.3432 173.008 28.4472 179.177 28.4492H186.732C189.998 28.4492 192.357 28.9159 193.808 29.8492C194.519 30.305 195.096 30.9423 195.478 31.6954C195.861 32.4485 196.036 33.29 195.985 34.1332V37.9002C196.037 38.3662 195.907 38.8344 195.623 39.2072C195.149 39.513 194.582 39.6413 194.023 39.5692L174.074 39.5702ZM174.074 36.3302H191.829V34.1412C191.823 33.7592 191.703 33.3877 191.486 33.0736C191.268 32.7596 190.962 32.5172 190.607 32.3772C189.331 31.8824 187.963 31.6702 186.597 31.7552H179.306C177.941 31.6648 176.575 31.9007 175.32 32.4432C174.973 32.5808 174.673 32.8133 174.452 33.114C174.232 33.4147 174.101 33.7714 174.074 34.1432V36.3302Z" fill="white"/>
<path d="M199.485 33.3552C199.467 32.6369 199.639 31.9267 199.984 31.2959C200.328 30.6652 200.832 30.1363 201.446 29.7622C203.22 28.7751 205.242 28.3206 207.269 28.4532H211.748C211.932 28.426 212.121 28.4494 212.293 28.5207C212.466 28.592 212.616 28.7086 212.728 28.8582C212.905 29.2542 212.983 29.6872 212.957 30.1202C212.981 30.5414 212.903 30.9623 212.728 31.3462C212.617 31.4968 212.467 31.6144 212.294 31.6864C212.122 31.7585 211.933 31.7822 211.748 31.7552H207.233C206.297 31.7005 205.36 31.8514 204.489 32.1972C204.24 32.2856 204.023 32.4461 203.865 32.6581C203.708 32.8702 203.617 33.1244 203.605 33.3882V34.2402C203.621 34.5096 203.717 34.7681 203.88 34.9832C204.044 35.1983 204.267 35.3604 204.522 35.4492C205.435 35.8098 206.416 35.9658 207.397 35.9062H214.627C217.677 35.9062 219.877 36.3419 221.227 37.2132C221.86 37.5884 222.381 38.126 222.737 38.7704C223.093 39.4147 223.27 40.1424 223.251 40.8782V41.9262C223.277 42.6795 223.089 43.4249 222.708 44.0754C222.328 44.726 221.77 45.2548 221.1 45.6002C220.2 46.0819 219.227 46.4143 218.221 46.5842C216.828 46.8299 215.416 46.9447 214.002 46.9272H200.76C200.26 46.9272 199.93 46.7892 199.781 46.5182C199.6 46.1236 199.519 45.6904 199.547 45.2572C199.521 44.8361 199.602 44.4153 199.781 44.0332C199.93 43.7582 200.258 43.6222 200.76 43.6222H214.627C215.353 43.6313 216.078 43.5932 216.8 43.5082C217.269 43.4586 217.731 43.3494 218.173 43.1832C218.449 43.0835 218.692 42.9073 218.873 42.6752C219.007 42.4723 219.077 42.2335 219.073 41.9902V40.8122C219.077 40.5685 219.007 40.3292 218.873 40.1262C218.696 39.8926 218.459 39.7117 218.187 39.6032C217.763 39.4238 217.316 39.3066 216.86 39.2552C216.16 39.1743 215.457 39.1366 214.753 39.1422H207.43C205.365 39.2771 203.303 38.8309 201.479 37.8542C200.861 37.4936 200.35 36.9747 200 36.351C199.649 35.7274 199.471 35.0215 199.485 34.3062V33.3552Z" fill="white"/>
</g>
</g>
</g>
<defs>
<clipPath id="clip0_36_148">
<rect width="242" height="70" fill="white"/>
</clipPath>
</defs>
</svg>
